<svg xmlns="http://www.w3.org/2000/svg" width="980" height="448" font-family="system-ui,sans-serif" font-size="12"><rect width="100%" height="100%" fill="#fff"/><text x="12" y="20" font-size="14" font-weight="600">Primary rows: median of runs (log scale), whiskers min–max; shorter is faster</text><line x1="380" x2="380" y1="34" y2="438" stroke="#eee"/><text x="380" y="46" text-anchor="middle" fill="#888">10 ms</text><line x1="444.49213970144416" x2="444.49213970144416" y1="34" y2="438" stroke="#eee"/><text x="444.49213970144416" y="46" text-anchor="middle" fill="#888">30 ms</text><line x1="515.1692867661852" x2="515.1692867661852" y1="34" y2="438" stroke="#eee"/><text x="515.1692867661852" y="46" text-anchor="middle" fill="#888">100 ms</text><line x1="579.6614264676294" x2="579.6614264676294" y1="34" y2="438" stroke="#eee"/><text x="579.6614264676294" y="46" text-anchor="middle" fill="#888">300 ms</text><line x1="650.3385735323706" x2="650.3385735323706" y1="34" y2="438" stroke="#eee"/><text x="650.3385735323706" y="46" text-anchor="middle" fill="#888">1.00 s</text><line x1="714.8307132338148" x2="714.8307132338148" y1="34" y2="438" stroke="#eee"/><text x="714.8307132338148" y="46" text-anchor="middle" fill="#888">3.00 s</text><line x1="785.5078602985558" x2="785.5078602985558" y1="34" y2="438" stroke="#eee"/><text x="785.5078602985558" y="46" text-anchor="middle" fill="#888">10.00 s</text><line x1="850" x2="850" y1="34" y2="438" stroke="#eee"/><text x="850" y="46" text-anchor="middle" fill="#888">30.00 s</text><rect x="380" y="440" width="0" height="0"/><rect x="620" y="8" width="12" height="12" fill="#8a8f98"/><text x="636" y="18">main</text><rect x="490" y="440" width="0" height="0"/><rect x="740" y="8" width="12" height="12" fill="#2f7de1"/><text x="756" y="18">branch</text><text x="372" y="77" text-anchor="end">desktop · create button enabled</text><rect x="380" y="56" width="117.49343159058071" height="14" fill="#8a8f98"/><line x1="495.2703224645446" x2="506.34960903234384" y1="63" y2="63" stroke="#222"/><text x="512.3496090323438" y="67" font-size="11">74 ms</text><rect x="380" y="73" width="118.63265185447244" height="14" fill="#2f7de1"/><line x1="498.5156736139743" x2="509.7939925902259" y1="80" y2="80" stroke="#222"/><text x="515.7939925902259" y="84" font-size="11">75 ms</text><text x="372" y="119" text-anchor="end">phone, 4× CPU, Fast 4G · create button enabled</text><rect x="380" y="98" width="249.47182538738434" height="14" fill="#8a8f98"/><line x1="628.2830397352295" x2="631.7029704066761" y1="105" y2="105" stroke="#222"/><text x="637.7029704066761" y="109" font-size="11">701 ms</text><rect x="380" y="115" width="249.74758505277464" height="14" fill="#2f7de1"/><line x1="628.5941923316759" x2="631.1194984820198" y1="122" y2="122" stroke="#222"/><text x="637.1194984820198" y="126" font-size="11">704 ms</text><text x="372" y="161" text-anchor="end">join: navigation → Join button</text><rect x="380" y="140" width="191.7667618354567" height="14" fill="#8a8f98"/><line x1="559.9954391686947" x2="581.377624076597" y1="147" y2="147" stroke="#222"/><text x="587.377624076597" y="151" font-size="11">262 ms</text><rect x="380" y="157" width="156.1454189494341" height="14" fill="#2f7de1"/><line x1="534.2677554054974" x2="536.859703665963" y1="164" y2="164" stroke="#222"/><text x="542.859703665963" y="168" font-size="11">143 ms</text><text x="372" y="203" text-anchor="end">navigation → record shown · H = 2000</text><rect x="380" y="182" width="184.3819560773104" height="14" fill="#8a8f98"/><line x1="563.5510847440003" x2="568.888067683474" y1="189" y2="189" stroke="#222"/><text x="574.888067683474" y="193" font-size="11">231 ms</text><rect x="380" y="199" width="172.64704089047268" height="14" fill="#2f7de1"/><line x1="529.5230346103424" x2="557.9920998224775" y1="206" y2="206" stroke="#222"/><text x="563.9920998224775" y="210" font-size="11">189 ms</text><text x="372" y="245" text-anchor="end">join: click → joiner’s first frame</text><rect x="380" y="224" width="418.59161792660825" height="14" fill="#8a8f98"/><line x1="749.9488865281539" x2="800.5257761218363" y1="231" y2="231" stroke="#222"/><text x="806.5257761218363" y="235" font-size="11">12.50 s</text><rect x="380" y="241" width="405.2911391744683" height="14" fill="#2f7de1"/><line x1="760.3876842207164" x2="787.3222263241662" y1="248" y2="248" stroke="#222"/><text x="793.3222263241662" y="252" font-size="11">9.96 s</text><text x="372" y="287" text-anchor="end">joiner’s first render() call</text><rect x="380" y="266" width="71.05748359565769" height="14" fill="#8a8f98"/><line x1="424.2488736775387" x2="451.7532342627147" y1="273" y2="273" stroke="#222"/><text x="457.7532342627147" y="277" font-size="11">34 ms</text><rect x="380" y="283" width="51.6369711773724" height="14" fill="#2f7de1"/><line x1="418.90195456474294" x2="441.27471670218915" y1="290" y2="290" stroke="#222"/><text x="447.27471670218915" y="294" font-size="11">24 ms</text><text x="372" y="329" text-anchor="end">Enter → mover’s first frame with the move</text><rect x="380" y="308" width="200.07091784164118" height="14" fill="#8a8f98"/><line x1="579.6614264676294" x2="593.4299846641799" y1="315" y2="315" stroke="#222"/><text x="599.4299846641799" y="319" font-size="11">302 ms</text><rect x="380" y="325" width="202.79517030009833" height="14" fill="#2f7de1"/><line x1="577.4786748412067" x2="585.5580807381946" y1="332" y2="332" stroke="#222"/><text x="591.5580807381946" y="336" font-size="11">316 ms</text><text x="372" y="371" text-anchor="end">Enter → opponent’s first frame with the move</text><rect x="380" y="350" width="196.94825067308693" height="14" fill="#8a8f98"/><line x1="571.9344057629054" x2="595.0630681306927" y1="357" y2="357" stroke="#222"/><text x="601.0630681306927" y="361" font-size="11">286 ms</text><rect x="380" y="367" width="209.13672105885985" height="14" fill="#2f7de1"/><line x1="588.1036444127785" x2="594.8444056229607" y1="374" y2="374" stroke="#222"/><text x="600.8444056229607" y="378" font-size="11">353 ms</text><text x="372" y="413" text-anchor="end">click → first frame with the piece held</text><rect x="380" y="392" width="154.85837904032462" height="14" fill="#8a8f98"/><line x1="531.9102247405278" x2="545.2737133222857" y1="399" y2="399" stroke="#222"/><text x="551.2737133222857" y="403" font-size="11">140 ms</text><rect x="380" y="409" width="160.5163288555309" height="14" fill="#2f7de1"/><line x1="530.7287633342249" x2="563.4866818024168" y1="416" y2="416" stroke="#222"/><text x="569.4866818024168" y="420" font-size="11">154 ms</text></svg>